# xmcd
# 
# Track frame offsets:
#     150
#     1213
#     22898
#     34915
#     48914
#     61890
#     74966
#     94948
#     108314
#     120277
#     138036
#     154471
#     168805
#     183490
#     204022
#     221510
#     239192
# 
# Disc length: 3582
# 
# Revision: 2
# Processed by: cddbd v1.5.2PL0 Copyright (c) Steve Scherf et al.
# Submitted via: fre:ac v1.0.27
# 
DISCID=e50dfc11
DTITLE=Various Artist - Motortown Revue In Paris [CD2]
DYEAR=1965
DGENRE=R&B
TTITLE0=Harold Kay - Introduction 2 (live) (mono)
TTITLE1=Earl Van Dyke and The Soul Brothers - All About My Girl (live) (mono)
TTITLE2=Earl Van Dyke and The Soul Brothers - Too Many Fish In The Sea (version 2) (live) (mono)
TTITLE3=Earl Van Dyke and The Soul Brothers - Soul Stomp (live) (mono)
TTITLE4=The Supremes - Come See About Me (live) (mono)
TTITLE5=The Supremes - Baby Love (live) (mono)
TTITLE6=The Supremes - People (live) (mono)
TTITLE7=The Supremes - Somewhere (There's A Place For Us) (live) (mono)
TTITLE8=The Supremes - Stop! In The Name Of Love (live) (mono)
TTITLE9=The Supremes - You're Nobody 'Til Somebody Loves You (live) (mono)
TTITLE10=The Supremes - Shake (live) (mono)
TTITLE11=The Miracles - I Gotta Dance To Keep From Crying (live) (mono)
TTITLE12=The Miracles - That's What Love Is Made Of (live) (mono)
TTITLE13=The Miracles - Wives And Lovers (live) (mono)
TTITLE14=The Miracles - Ooo Baby Baby (live) (mono)
TTITLE15=The Miracles - Come On Do The Jerk (live) (mono)
TTITLE16=The Miracles - Mickey's Monkey (live) (mono)
EXTD=
EXTT0=
EXTT1=
EXTT2=
EXTT3=
EXTT4=
EXTT5=
EXTT6=
EXTT7=
EXTT8=
EXTT9=
EXTT10=
EXTT11=
EXTT12=
EXTT13=
EXTT14=
EXTT15=
EXTT16=
PLAYORDER=
